HIERARCHY
ROOT Hips
{
	OFFSET 0.00000 0.00000 0.00000
	CHANNELS 6 Xposition Yposition Zposition Zrotation Yrotation Xrotation 
	JOINT LHipJoint
	{
		OFFSET 0 0 0
		CHANNELS 3 Zrotation Yrotation Xrotation
		JOINT LeftHip
		{
			OFFSET 1.37733 -1.58235 0.71371
			CHANNELS 3 Zrotation Yrotation Xrotation
			JOINT LeftKnee
			{
				OFFSET 2.33951 -6.42775 0.00000
				CHANNELS 3 Zrotation Yrotation Xrotation
				JOINT LeftAnkle
				{
					OFFSET 2.30523 -6.33358 0.00000
					CHANNELS 3 Zrotation Yrotation Xrotation
					JOINT LeftToe
					{
						OFFSET 0.05388 -0.14857 1.53863
						CHANNELS 3 Zrotation Yrotation Xrotation
						End Site
						{
							OFFSET 0.00000 -0.00000 0.79208
						}
					}
				}
			}
		}
	}
	JOINT RHipJoint
	{
		OFFSET 0 0 0
		CHANNELS 3 Zrotation Yrotation Xrotation
		JOINT RightHip
		{
			OFFSET -1.47839 -1.58235 0.71371
			CHANNELS 3 Zrotation Yrotation Xrotation
			JOINT RightKnee
			{
				OFFSET -2.26534 -6.22397 0.00000
				CHANNELS 3 Zrotation Yrotation Xrotation
				JOINT RightAnkle
				{
					OFFSET -2.27037 -6.23779 0.00000
					CHANNELS 3 Zrotation Yrotation Xrotation
					JOINT RightToe
					{
						OFFSET -0.09543 -0.26220 1.62615
						CHANNELS 3 Zrotation Yrotation Xrotation
						End Site
						{
							OFFSET -0.00000 -0.00000 0.83991
						}
					}
				}
			}
		}
	}
	JOINT lowerback
	{
		OFFSET 0 0 0
		CHANNELS 3 Zrotation Yrotation Xrotation
		JOINT Chest
		{
			OFFSET 0.00101 1.81877 -0.00412
			CHANNELS 3 Zrotation Yrotation Xrotation
			JOINT Chest2
			{
				OFFSET 0.00322 1.81934 -0.03962
				CHANNELS 3 Zrotation Yrotation Xrotation
				JOINT lowerneck
				{
					OFFSET 0 0 0
					CHANNELS 3 Zrotation Yrotation Xrotation
					JOINT Neck
					{
						OFFSET -0.13795 1.66192 0.22650
						CHANNELS 3 Zrotation Yrotation Xrotation
						JOINT Head
						{
							OFFSET 0.14844 1.65995 -0.39123
							CHANNELS 3 Zrotation Yrotation Xrotation
							End Site
							{
								OFFSET 0.04109 1.72502 -0.16783
							}
						}
					}
				}
				JOINT LeftCollar
				{
					OFFSET 0 0 0
					CHANNELS 3 Zrotation Yrotation Xrotation
					JOINT LeftShoulder
					{
						OFFSET 3.25446 1.41983 0.32106
CHANNELS 3 Zrotation Xrotation Yrotation
						JOINT LeftElbow
						{
OFFSET 0 -4.054440 -0.000000
CHANNELS 3 Zrotation Xrotation Yrotation
							JOINT LeftWrist
							{
OFFSET 0 -3.212050 0.000000
CHANNELS 3 Zrotation Xrotation Yrotation
								JOINT lhand
								{
									OFFSET 0 0 0
CHANNELS 3 Zrotation Xrotation Yrotation
									JOINT LFingers
									{
OFFSET 0 -0.707410 0.000000
CHANNELS 3 Zrotation Xrotation Yrotation
										End Site
										{
OFFSET 0 -0.570330 0.000000
										}
									}
								}
								JOINT LThumb
								{
OFFSET 0 0.000000 0.000000
CHANNELS 3 Zrotation Xrotation Yrotation
									End Site
									{
OFFSET 0 -0.579040 0.579040
									}
								}
							}
						}
					}
				}
				JOINT RightCollar
				{
					OFFSET 0 0 0
					CHANNELS 3 Zrotation Yrotation Xrotation
					JOINT RightShoulder
					{
						OFFSET -3.30007 1.25485 0.33947
CHANNELS 3 Zrotation Xrotation Yrotation
						JOINT RightElbow
						{
OFFSET 0 -3.740480 -0.000000
CHANNELS 3 Zrotation Xrotation Yrotation
							JOINT RightWrist
							{
OFFSET 0 -3.160300 0.000000
CHANNELS 3 Zrotation Xrotation Yrotation
								JOINT rhand
								{
									OFFSET 0 0 0
CHANNELS 3 Zrotation Xrotation Yrotation
									JOINT RFingers
									{
OFFSET 0 -0.717030 0.000000
CHANNELS 3 Zrotation Xrotation Yrotation
										End Site
										{
OFFSET 0 -0.578090 0.000000
										}
									}
								}
								JOINT RThumb
								{
OFFSET 0 0.000000 0.000000
CHANNELS 3 Zrotation Xrotation Yrotation
									End Site
									{
OFFSET 0 -0.586910 0.586910
									}
								}
							}
						}
					}
				}
			}
		}
	}
}
MOTION
Frames: 9
Frame Time: 0.008333333333333333
15.326913 14.776188 0.120546 78.700432 87.243261 109.492062 0.000000 0.000000 0.000000 -6.100731 -19.376150 -78.608551 10.965966 17.911092 62.662124 -0.242071 -9.005019 5.962713 4.153103 -12.361323 -37.022572 0.000000 0.000000 0.000000 2.271727 16.908300 -75.386736 -10.293623 -17.563868 60.455095 -1.038002 7.101792 -18.222853 -0.161697 -2.423697 6.684780 -0.675584 -1.120741 13.250908 -0.010905 -0.892856 10.554906 0.470601 -0.231248 3.716123 -6.361276 -1.589405 -14.731313 1.424787 -1.000746 3.758635 1.414277 -0.502942 3.588021 0.000000 0.000000 0.000000 14.958401 53.088100 83.612108 5.209745 -8.937664 0.407813 45.193590 13.226922 2.850260 0.000000 0.000000 0.000000 -7.125000 0.000000 0.000000 13.980748 25.892041 6.661136 0.000000 0.000000 0.000000 -2.593803 51.421734 -87.097182 -7.601030 -12.903697 -0.861329 -30.198990 52.926308 11.396300 0.000000 0.000000 0.000000 7.125000 0.000000 0.000000 -2.776313 43.085843 -0.141635
15.312539 14.624563 0.114837 77.777295 87.355583 108.774185 0.000000 0.000000 0.000000 -5.481994 -19.555249 -79.833253 11.436898 18.131876 64.179973 -0.161412 -7.841057 6.529540 4.153308 -12.361570 -37.023517 0.000000 0.000000 0.000000 1.993981 17.194301 -76.641007 -10.765869 -17.807404 62.004484 -0.899807 8.366577 -17.095360 -0.083092 -1.497891 4.127941 -0.654351 -1.134622 13.502124 -0.000515 -0.930967 10.304717 0.476802 -0.254945 3.311968 -6.344027 -1.485214 -14.741539 1.217761 -0.838238 2.600505 1.420232 -0.406226 3.362062 0.000000 0.000000 0.000000 12.829002 50.520501 93.122123 5.054835 -8.676592 0.384240 45.321970 22.705766 3.146979 0.000000 0.000000 0.000000 -7.125000 0.000000 0.000000 14.013644 25.473923 6.819209 0.000000 0.000000 0.000000 -1.605409 48.726001 -87.998347 -7.408091 -12.588291 -0.818988 -30.607169 57.211924 10.436900 0.000000 0.000000 0.000000 7.125000 0.000000 0.000000 -3.189338 42.031328 -0.248906
15.298414 14.473152 0.109206 76.769412 87.471466 107.960015 0.000000 0.000000 0.000000 -4.870752 -19.724655 -81.042629 11.908070 18.350472 65.696027 -0.081034 -6.672696 7.098864 4.151881 -12.359695 -37.016814 0.000000 0.000000 0.000000 1.723789 17.483945 -77.895287 -11.244873 -18.051175 63.572165 -0.762723 9.612894 -15.983619 -0.010599 -0.578026 1.588178 -0.628527 -1.145720 13.748932 0.007993 -0.965569 10.047714 0.478091 -0.276862 2.902859 -6.323092 -1.389504 -14.737408 1.014304 -0.689361 1.466596 1.421024 -0.316169 3.130457 0.000000 0.000000 0.000000 10.785832 47.897930 102.554945 4.908948 -8.430724 0.362045 45.440392 32.398690 3.467544 0.000000 0.000000 0.000000 -7.125000 0.000000 0.000000 14.034394 25.023835 6.981026 0.000000 0.000000 0.000000 -0.638284 46.008049 -88.747325 -7.222045 -12.284107 -0.778211 -31.012073 61.393090 9.470942 0.000000 0.000000 0.000000 7.125000 0.000000 0.000000 -3.596671 40.967355 -0.359673
15.287859 14.324813 0.104689 74.543297 87.638533 105.761621 0.000000 0.000000 0.000000 -4.367253 -19.754717 -82.031680 12.382698 18.537621 67.186278 -0.004688 -5.441094 7.704090 4.126994 -12.327333 -36.900180 0.000000 0.000000 0.000000 1.562185 17.825963 -79.149681 -11.821022 -18.298325 65.402791 -0.641612 10.593732 -15.098306 -0.025959 0.256444 -0.706111 -0.536698 -1.116807 13.932385 -0.010570 -0.949717 9.692759 0.408768 -0.273207 2.422522 -6.249169 -1.415706 -14.526891 0.862145 -0.736426 0.680875 1.347594 -0.321836 2.817679 0.000000 0.000000 0.000000 9.982204 44.485142 110.878123 4.892767 -8.403413 0.359663 45.415669 45.169006 4.130881 0.000000 0.000000 0.000000 -7.125000 0.000000 0.000000 13.880552 24.114169 7.196676 0.000000 0.000000 0.000000 0.023082 42.970709 -87.308616 -7.135103 -12.141230 -0.759936 -31.369903 64.072807 8.410719 0.000000 0.000000 0.000000 7.125000 0.000000 0.000000 -3.922180 39.767417 -0.520703
15.277304 14.176473 0.100171 72.317182 87.805599 103.563227 0.000000 0.000000 0.000000 -3.863754 -19.784779 -83.020731 12.857326 18.724770 68.676528 0.071658 -4.209492 8.309316 4.102106 -12.294971 -36.783545 0.000000 0.000000 0.000000 1.400580 18.167981 -80.404076 -12.397172 -18.545475 67.233417 -0.520501 11.574570 -14.212994 -0.041318 1.090914 -3.000400 -0.444869 -1.087895 14.115837 -0.029133 -0.933864 9.337804 0.339444 -0.269552 1.942185 -6.175246 -1.441908 -14.316374 0.709986 -0.783490 -0.104847 1.274163 -0.327504 2.504902 0.000000 0.000000 0.000000 9.178577 41.072354 119.201301 4.876586 -8.376103 0.357281 45.390946 57.939321 4.794219 0.000000 0.000000 0.000000 -7.125000 0.000000 0.000000 13.726709 23.204503 7.412327 0.000000 0.000000 0.000000 0.684448 39.933369 -85.869906 -7.048161 -11.998353 -0.741660 -31.727732 66.752523 7.350496 0.000000 0.000000 0.000000 7.125000 0.000000 0.000000 -4.247688 38.567479 -0.681732
15.269674 14.034991 0.095731 68.661211 87.872135 99.784118 0.000000 0.000000 0.000000 -3.661405 -19.768316 -83.745015 13.304758 18.883326 70.063998 0.145184 -2.920549 8.941453 4.102914 -12.296068 -36.787418 0.000000 0.000000 0.000000 1.211909 18.501227 -81.462715 -12.972441 -18.761133 69.029446 -0.414994 12.458267 -13.513862 -0.047699 1.409769 -3.877124 -0.474608 -1.038773 14.141185 -0.061178 -0.903159 9.012944 0.320580 -0.263490 1.581605 -6.098450 -1.515748 -14.163614 0.570740 -0.894883 -0.571253 1.203864 -0.373926 2.317212 0.000000 0.000000 0.000000 9.476459 37.731399 126.646723 4.569890 -7.855225 0.317792 45.329866 68.820914 6.164010 0.000000 0.000000 0.000000 -7.125000 0.000000 0.000000 13.404075 21.343695 7.782434 0.000000 0.000000 0.000000 1.075923 36.558988 -82.920994 -6.968724 -11.867612 -0.725248 -32.266205 67.712179 6.363685 0.000000 0.000000 0.000000 7.125000 0.000000 0.000000 -4.699966 37.447784 -0.891720
15.263760 13.897535 0.091337 64.165776 87.879651 95.076975 0.000000 0.000000 0.000000 -3.635860 -19.724537 -84.313854 13.736223 19.025094 71.391125 0.217054 -1.597939 9.589390 4.118808 -12.316807 -36.862039 0.000000 0.000000 0.000000 1.007347 18.829323 -82.406427 -13.547194 -18.958303 70.805164 -0.318647 13.284934 -12.924037 -0.048808 1.425909 -3.921601 -0.575718 -0.977787 14.073710 -0.101137 -0.863733 8.705752 0.331340 -0.256016 1.291333 -6.019968 -1.617556 -14.044761 0.439075 -1.044044 -0.850190 1.135403 -0.444277 2.202959 0.000000 0.000000 0.000000 10.421033 34.432617 133.576819 4.092633 -7.044574 0.256518 45.247442 78.593644 7.948557 0.000000 0.000000 0.000000 -7.125000 0.000000 0.000000 12.982343 18.924476 8.243222 0.000000 0.000000 0.000000 1.308945 32.986731 -79.085447 -6.893692 -11.743996 -0.709930 -32.910733 67.661993 5.419973 0.000000 0.000000 0.000000 7.125000 0.000000 0.000000 -5.226668 36.375200 -1.130451
15.257502 13.763333 0.086606 60.200882 87.876901 90.848799 0.000000 0.000000 0.000000 -3.665784 -19.697049 -84.804515 14.161590 19.160427 72.695862 0.286968 -0.292158 10.239586 4.138956 -12.342980 -36.956373 0.000000 0.000000 0.000000 0.826601 19.128595 -83.265927 -14.114639 -19.144975 72.551617 -0.219921 14.138462 -12.350271 -0.064693 1.574550 -4.333090 -0.680940 -0.920230 13.977634 -0.135800 -0.827328 8.418690 0.349969 -0.249728 1.038043 -5.941334 -1.712826 -14.017534 0.300966 -1.177506 -1.013334 1.066349 -0.510179 2.144279 0.000000 0.000000 0.000000 11.024190 30.665903 140.712793 3.976555 -6.842074 0.250112 45.376009 87.953534 9.867440 0.000000 0.000000 0.000000 -7.125000 0.000000 0.000000 12.661387 16.273479 8.821438 0.000000 0.000000 0.000000 1.527223 29.388631 -74.178779 -6.849639 -11.671425 -0.700942 -33.568003 66.680255 4.549752 0.000000 0.000000 0.000000 7.125000 0.000000 0.000000 -5.759510 35.384832 -1.370167
15.249822 13.642550 0.080487 58.424467 87.831808 88.596359 0.000000 0.000000 0.000000 -3.924515 -19.736762 -84.972690 14.561802 19.269218 73.908244 0.348817 0.944208 10.899105 4.176657 -12.391564 -37.132023 0.000000 0.000000 0.000000 0.744095 19.308967 -83.778050 -14.651937 -19.288345 74.177352 -0.111377 15.102790 -11.842747 -0.141532 2.269757 -6.258502 -0.803118 -0.876821 13.763586 -0.148614 -0.803385 8.214662 0.401058 -0.248331 0.937302 -5.862072 -1.781123 -14.368259 0.136282 -1.246214 -0.698832 0.994849 -0.557737 2.314837 0.000000 0.000000 0.000000 10.219002 24.968970 148.698019 5.350335 -9.148190 0.470033 46.374917 95.610459 12.340459 0.000000 0.000000 0.000000 -7.125000 0.000000 0.000000 12.756132 12.666396 9.884043 0.000000 0.000000 0.000000 1.684680 25.683929 -64.853737 -6.933378 -11.809415 -0.718067 -34.277830 61.855862 3.982678 0.000000 0.000000 0.000000 7.125000 0.000000 0.000000 -6.317671 34.733610 -1.613950
